<svg width="742" height="703" viewBox="0 0 742 703" fill="none" xmlns="http://www.w3.org/2000/svg">
<path d="M596.916 379.591L708.804 660.174L411.603 606.16L596.916 379.591Z" fill="white" stroke="#2F855A" stroke-width="10"/>
<path d="M491.035 622.633C432.87 650.353 366.893 657.046 304.346 641.574C241.799 626.102 186.551 589.42 148.017 537.781C109.483 486.141 90.0466 422.737 93.0194 358.374C95.9921 294.01 121.19 232.668 164.32 184.8C207.45 136.932 265.843 105.499 329.55 95.8582C393.257 86.2171 458.336 98.9637 513.699 131.926C569.061 164.889 611.282 216.028 633.166 276.63C655.051 337.232 655.246 403.547 633.717 464.277L371.223 371.223L491.035 622.633Z" fill="#2F855A"/>
<mask id="path-3-inside-1_101_6" fill="white">
<path d="M249.38 160.618C295.801 133.817 350.515 124.697 404.2 134.812C457.886 144.927 507.22 173.652 543.798 216.091C580.375 258.531 601.933 312.059 604.797 367.557C607.661 423.054 591.655 477.086 559.506 520.446C527.357 563.806 481.054 593.812 428.486 605.351C375.919 616.889 320.339 609.247 271.218 583.726C222.096 558.205 182.472 516.384 159.097 465.389C135.721 414.394 130.041 357.38 143.024 304.062L370.667 370.693L249.38 160.618Z"/>
</mask>
<path d="M249.38 160.618C295.801 133.817 350.515 124.697 404.2 134.812C457.886 144.927 507.22 173.652 543.798 216.091C580.375 258.531 601.933 312.059 604.797 367.557C607.661 423.054 591.655 477.086 559.506 520.446C527.357 563.806 481.054 593.812 428.486 605.351C375.919 616.889 320.339 609.247 271.218 583.726C222.096 558.205 182.472 516.384 159.097 465.389C135.721 414.394 130.041 357.38 143.024 304.062L370.667 370.693L249.38 160.618Z" fill="white" stroke="#2F855A" stroke-width="20" mask="url(#path-3-inside-1_101_6)"/>
<path d="M335.744 245.475C369.996 229.794 408.345 225.839 444.618 234.248C480.891 242.657 512.976 262.94 535.708 291.831C558.441 320.722 570.497 356.541 569.935 393.52C569.374 430.499 556.229 466.487 532.615 495.69C509.002 524.892 476.294 545.61 439.759 554.507C403.224 563.404 364.986 559.963 331.203 544.739C297.42 529.514 270.057 503.391 253.52 470.575C236.983 437.76 232.233 400.162 240.036 363.835L403.165 394.639L335.744 245.475Z" fill="#2F855A"/>
<ellipse cx="458.5" cy="330" rx="29.5" ry="27" fill="white"/>
</svg>
