<?xml version="1.0" encoding="UTF-8" standalone="no"?>
<!-- Created with Inkscape (http://www.inkscape.org/) -->

<svg
   version="1.1"
   id="svg1"
   width="1024"
   height="1134"
   viewBox="0 0 1024 1134"
   sodipodi:docname="logoHTL.svg"
   inkscape:version="1.3.2 (091e20e, 2023-11-25, custom)"
   xmlns:inkscape="http://www.inkscape.org/namespaces/inkscape"
   xmlns:sodipodi="http://sodipodi.sourceforge.net/DTD/sodipodi-0.dtd"
   xmlns="http://www.w3.org/2000/svg"
   xmlns:svg="http://www.w3.org/2000/svg">
  <defs
     id="defs1" />
  <sodipodi:namedview
     id="namedview1"
     pagecolor="#ffffff"
     bordercolor="#000000"
     borderopacity="0.25"
     inkscape:showpageshadow="2"
     inkscape:pageopacity="0.0"
     inkscape:pagecheckerboard="0"
     inkscape:deskcolor="#d1d1d1"
     inkscape:zoom="0.48449909"
     inkscape:cx="1088.7533"
     inkscape:cy="793.60314"
     inkscape:window-width="1920"
     inkscape:window-height="991"
     inkscape:window-x="-9"
     inkscape:window-y="-9"
     inkscape:window-maximized="1"
     inkscape:current-layer="g1" />
  <g
     inkscape:groupmode="layer"
     inkscape:label="Image"
     id="g1">
    <path
       style="fill:#12408e;stroke:none"
       d="M 1.6221148,3.7738509 V 1039.7738 H 1025.6221 V 3.7738509 H 1.6221148 M 674.6221,637.77385 c -12.7666,7.72717 -29.6449,12.34583 -44,16.33337 -45.4918,12.63666 -92.57109,21.27771 -139.99999,16.66663 -12.0045,-1.16711 -24.0112,-1.83447 -36,-3 -7.9365,-0.77161 -16.1599,-3.03333 -24,-4.66663 -23.4816,-4.89202 -46.7224,-11.69384 -69,-20.66674 -25.2891,-10.18592 -50.2205,-23.14698 -73,-38.33332 -29.0966,-19.39776 -55.1083,-40.95898 -81,-64.33331 -3.7086,-3.34802 -6.5442,-7.43628 -10,-11 -22.922,-23.63831 -42.0803,-49.3421 -61.3333,-76 -16.6015,-22.98663 -30.7877,-48.4917 -42.833295,-74 -7.2417,-15.33521 -15.9036,-30.88232 -21.5,-47 -6.1986,-17.85193 -13.8918,-35.61023 -19,-54 -7.9264,-28.53497 -15.3413,-56.89801 -21,-86 -6.1079,-31.41205 -8.2482,-63.26733 -11.3334,-94.999999 -1.0944,-11.256714 0.092,-22.762695 -1,-34 -0.6536,-6.723267 0.3595,-13.411621 1,-20 0.9835,-10.115356 0,-20.829956 0,-31 h 198.999995 49 c 3.6435,0 7.3857,0.234985 11,-0.166626 1.4701,-0.16333 3.3464,-0.910034 4.5,0.5 2.4074,2.942261 -0.1823,10.399414 -0.5,13.666626 -0.8882,9.135864 0,18.814697 0,28 0,38.078857 1.3281,76.230769 5,113.999999 7.0021,72.02228 21.7011,143.10321 44.6667,212 13.1852,39.55566 30.4618,78.19263 53.6667,113 27.8316,41.74738 69.2254,83.90143 121.6666,89 15.6118,1.51782 31.14,-1.20557 46,-5.33331 18.66809,-5.18555 36.31939,-17.39557 50.99999,-29.83338 3.7249,-3.15576 7.44,-6.64764 10.8333,-10.16662 1.3411,-1.39069 2.8469,-4.07288 5.1667,-3.16669 2.1606,0.84393 3.7859,4.67871 5,6.5 3.511,5.26654 6.625,10.71741 10,16 10.9585,17.1524 18.7346,35.60284 27.1667,54 4.0046,8.73724 9.0744,18.45142 10.8333,28 m 331,-625.999999 c 0,29.169556 2.834,58.850464 0,88.000002 -1.7491,17.991027 -3.2511,36.011657 -5,53.999997 -3.2942,33.88257 -11.5549,68.19745 -20.6667,101 -12.7694,45.9704 -28.8326,92.29932 -52,134 -15.2682,27.48254 -30.4431,54.30591 -49,80 -4.3889,6.07697 -8.4396,12.31708 -13.3333,18 -1.362,1.58167 -2.7317,4.45526 -5,4.83331 -2.3823,0.39704 -3.9861,-2.50586 -5.3333,-4 -4.1222,-4.57196 -8.3114,-9.14471 -12.6667,-13.5 -17.456,-17.45605 -35.218,-35.16357 -55,-50 -18.7783,-14.0838 -38.2725,-26.72961 -58,-39.33331 -4.4381,-2.83551 -9.3187,-5.36267 -14,-7.83331 -2.0086,-1.06012 -5.4516,-1.85303 -6.5,-4.16669 -0.8454,-1.86578 0.677,-4.23688 1.1667,-6 1.7804,-6.40948 4.2112,-12.56024 6,-19 7.1756,-25.83221 13.882,-51.67853 19,-78 6.7551,-34.7406 11.9167,-69.85815 15.3333,-105 1.8746,-19.28088 2.1255,-38.71985 4,-58 0.9311,-9.576293 -0.931,-19.423827 0,-28.999999 2.1364,-21.974121 0,-43.932251 0,-66 h 251 M 415.62211,488.77385 h -1 l -18.1666,-28 -25.1667,-51 -11.6667,-31 c 21.6812,-7.98767 43.4478,-15.34186 66,-20.66669 20.5562,-4.85351 42.0677,-6.29821 63,-8.33331 15.1758,-1.47546 31.9641,-0.46185 47,1 17.9309,1.74329 35.28839,2.97675 52.99999,6.66669 48.4832,10.10064 97.4458,27.54083 139,54.66662 27.5249,17.96778 53.7205,37.43897 78,59.66669 14.795,13.54468 27.724,28.76501 41,43.66669 51.7283,58.06237 90.9187,130.08954 115.3333,203.33331 25.6293,76.88782 41.6667,156.82648 41.6667,238 0,11.74744 0.1283,23.39465 -1,35 -0.7126,7.32906 0.7429,14.75055 -0.6667,21.99995 -0.8113,4.1727 1.4184,14.6787 -2.5,17.5 -2.7105,1.9515 -10.5568,0.5 -13.8333,0.5 h -37 -142 -42 c -2.9579,0 -11.6046,1.4657 -13.5,-1.1666 -2.3414,-3.252 0.1583,-10.3184 0.5,-13.8334 1.0302,-10.5964 -0.028,-21.42292 1,-31.99995 1.4755,-15.17578 0.4619,-31.96405 -1,-47 -1.7731,-18.23779 -0.2277,-36.77124 -2,-55 -7.6214,-78.39056 -18.5587,-155.67603 -43.6667,-231 -8.2329,-24.69879 -16.835,-49.67017 -28.5,-73 -5.9686,-11.93732 -12.653,-23.5354 -19.5,-35 -30.5251,-51.11176 -77.1851,-104 -141.33329,-104 -8.2804,0 -15.9654,0.15808 -24,2.16669 -10.7015,2.67535 -21.2816,5.76745 -31,11.16662 -17.3245,9.62488 -31.9657,21.63245 -46,35.66669 m -252,40 c 10.6269,10.62689 20.2985,22.33289 31.1667,32.66669 23.4309,22.27862 48.7505,42.98748 75.8333,60.66662 12.3556,8.06549 25.085,15.67102 38,22.66669 3.615,1.95807 7.3256,3.99609 11,5.83337 1.7435,0.87171 4.5616,1.16034 5.5,3.16663 1.3008,2.78101 -2.2503,9.25098 -3.1666,12 -3.407,10.22083 -6.1156,20.61609 -9,31 -9.613,34.60657 -17.3777,71.3988 -21.3334,107 -5.3945,48.55151 -11,96.83673 -11,146 0,15.74622 -1.5226,32.33838 0,48 0.7794,8.01595 1,15.86265 1,23.99995 0,2.3284 1.2978,5.8614 0.6667,8 -1.0737,3.6387 -10.705,2 -13.6667,2 h -45 -148.999995 -39 c -3.4759,0 -11.9679,1.5631 -14.8333,-0.5 -1.6207,-1.1669 -1.7116,-5.6122 -2,-7.5 -1.2349,-8.0827 -1.1667,-16.7928 -1.1667,-24.99999 0,-31.50741 -1.0507,-62.62069 2,-93.99996 1.3944,-14.34198 2.607,-28.67175 4,-43 2.4355,-25.05029 8.5642,-50.58997 14.6667,-75 15.008,-60.0321 36.336,-118.00482 66.333295,-172 11.3435,-20.41833 24.0209,-39.83008 37.3334,-59 5.859,-8.43707 12.8236,-21.74194 21.6666,-27 m 95,589.99995 -1,1 c 0.5884,3.1942 -0.2194,10.3019 1.5,12.8334 2.4977,3.6771 11.5915,3.74 15.5,4.5 17.3887,3.3811 41.9714,-2.4673 44,-23.3334 1.8711,-19.2457 -11.813,-25.5114 -28,-29.3334 -7.1318,-1.6838 -19.1728,-5.5688 -15.6666,-15.6666 5.3729,-15.4739 28.2741,-4.8204 38.6666,-4 0,-3.373 1.4648,-11.1931 -1.1666,-13.6666 -2.6506,-2.4916 -9.3638,-2.8255 -12.8334,-3.5 -13.562,-2.6371 -31.8801,-0.7398 -38.8333,13.1666 -1.6641,3.3281 -2.1667,7.3204 -2.1667,11 0,3.8159 -0.1706,7.3353 1,11 3.8105,11.9283 16.1301,14.4021 27,16.6666 4.6581,0.9705 10.7082,2.2707 13.8334,6.3334 4.6137,5.9979 -1.2738,13.8502 -6.8334,16.1666 -12.162,5.0675 -23.2754,-0.6983 -35,-3.1666 m -255.9999952,-70 v 87 H 18.622115 v -27 l 1.1667,-9.8334 9.8333,-1.1666 h 28 v 38 h 16 v -87 h -16 v 36 h -28 l -9.8333,-1.1666 -1.1667,-9.8334 v -25 H 2.6221148 m 83.0000002,0 v 13 h 18.999995 l 7.8334,1.1666 1.1666,18.8334 v 54 h 15 v -54 c 0,-4.2898 -1.9915,-15.6752 1.1667,-18.8334 1.7024,-1.7024 4.6465,-1.1666 6.8333,-1.1666 5.1137,0 13.2031,1.5634 18,-0.1666 2.7193,-0.9807 3.0777,-9.4756 1.5,-11.6668 -1.0377,-1.4413 -2.9583,-1.1452 -4.5,-1.1666 -4.3314,-0.06 -8.6681,0 -13,0 H 85.622115 m 81.999995,0 v 87 h 55 v -13 h -39 v -74 h -16 m 160,87 h 17 l 5.6667,-17 2.5,-4.5 17.8333,-0.5 12.8334,1.1666 8.5,20.3334 16.6666,0.5 -24.3333,-64 -8.6667,-23 -15.6666,1.1666 -2.5,5.8334 -6,16 -16.1667,42 -7.6667,22 m 85,0 h 17 l 5.3334,-16 2.8333,-5.5 17.8333,-0.5 13.6667,1.1666 2.6667,6.8334 4.6666,14 h 17 l -6.6666,-18 -18,-47 -6.1667,-16 -2.5,-5.5 -13.6667,-0.3334 -3.1666,4.8334 -6.5,17 -14.6667,39 -9.6667,26 m 93,-87 v 87 h 55.99999 v -13 h -39.99999 v -74 h -16 m 69.99999,0 v 87 l 16,-1 -1,-27 2,-9.5 9,-0.5 h 22 l 1,-12 c -6.3333,-2.6667 -16.0388,-1 -23,-1 -2.5004,0 -6.7705,0.8158 -9,-0.5 -1.7581,-1.0376 -1.8985,-2.6733 -2,-4.5 -0.2257,-4.0629 -1.7586,-15.0209 2.1667,-17.5 2.4702,-1.5601 7.9873,-0.5 10.8333,-0.5 h 26 v -13 h -54 m 68,0 v 87 h 57 v -13 h -29 c -2.9576,0 -8.3834,1.0442 -11,-0.5 -2.0872,-1.2318 -1.9707,-3.3894 -2,-5.5 -0.057,-4.1168 -2.0011,-16.1387 2,-18.5 2.2296,-1.3158 6.4996,-0.5 9,-0.5 h 23 v -13 h -23 c -2.5003,0 -6.7705,0.8157 -9,-0.5 -3.7874,-2.2352 -2.2166,-13.6 -2,-17.5 0.1015,-1.8265 0.242,-3.4625 2,-4.5 2.6167,-1.5443 8.0421,-0.5 11,-0.5 h 27 v -13 h -55 m 129,87 -0.5,-11.8334 -8.5,-1.1666 h -22 l -8.5,-2 -0.5,-20 v -52 l -15.5,1.1666 -0.5,17.8334 v 48 13 l 0.5,5.8334 13.5,1.1666 h 42 m 14,-87 v 87 c 18.9087,0 40.4711,2.6859 57,-8.3334 22.1108,-14.7405 22.3263,-57.4023 -1,-71.3332 -16.7511,-10.0042 -37.1585,-7.3334 -56,-7.3334 m 89,0 v 87 h 57 v -13 h -30 l -10.5,-2 -0.5,-7 v -16 h 34 v -13 h -34 v -15 l 0.5,-6 9.5,-2 h 29 v -13 h -55 m 74,0 v 87 h 15 v -63 h 1 l 28.6667,45 8.3333,12 4.1667,5.5 16.8333,0.5 v -87 l -14.8333,0.5 -1.1667,15.5 1,46 -12.3333,-19 -20.3334,-29 -9.5,-13.5 -16.8333,-0.5 m -148,73 1,-36 -1,-23 c 11.315,-4.7642 30.6879,0.9506 37.6667,11 9.1201,13.1329 5.3667,36.6754 -8.6667,44.6666 -4.9782,2.835 -10.4643,3.1027 -16,3.3334 -4.6553,0.194 -8.5293,1.8823 -13,0 m -433.99999,-50 4.1667,9 6.8333,19 h -21 l 3.6667,-11 6.3333,-17 m 86,0 10,28 h -21 l 6.6667,-19 z"
       id="path1" />
  </g>
</svg>
