<?xml version="1.0" encoding="windows-1252" standalone="no"?>
<svg xmlns="http://www.w3.org/2000/svg" xmlns:xlink="http://www.w3.org/1999/xlink" contentStyleType="text/css" height="826px" preserveAspectRatio="none" style="width:618px;height:826px;background:#FFFFFF;" version="1.1" viewBox="0 0 618 826" width="618px" zoomAndPan="magnify"><defs/><g><rect fill="none" height="384.2031" style="stroke:#000000;stroke-width:1.5;" width="498.5" x="10" y="214.8281"/><rect fill="none" height="90.2031" style="stroke:#000000;stroke-width:1.5;" width="260" x="20" y="297.2266"/><rect fill="none" height="103.2031" style="stroke:#000000;stroke-width:1.5;" width="336" x="162.5" y="401.4297"/><line style="stroke:#181818;stroke-width:0.5;stroke-dasharray:5.0,5.0;" x1="55" x2="55" y1="81.2969" y2="745.5625"/><line style="stroke:#181818;stroke-width:0.5;stroke-dasharray:5.0,5.0;" x1="219.5" x2="219.5" y1="81.2969" y2="745.5625"/><line style="stroke:#181818;stroke-width:0.5;stroke-dasharray:5.0,5.0;" x1="465.5" x2="465.5" y1="81.2969" y2="745.5625"/><text fill="#000000" font-family="sans-serif" font-size="14" lengthAdjust="spacing" textLength="44" x="30" y="77.9951">Player</text><ellipse cx="55" cy="13.5" fill="#E2E2F0" rx="8" ry="8" style="stroke:#181818;stroke-width:0.5;"/><path d="M55,21.5 L55,48.5 M42,29.5 L68,29.5 M55,48.5 L42,63.5 M55,48.5 L68,63.5 " fill="none" style="stroke:#181818;stroke-width:0.5;"/><text fill="#000000" font-family="sans-serif" font-size="14" lengthAdjust="spacing" textLength="44" x="30" y="757.5576">Player</text><ellipse cx="55" cy="769.3594" fill="#E2E2F0" rx="8" ry="8" style="stroke:#181818;stroke-width:0.5;"/><path d="M55,777.3594 L55,804.3594 M42,785.3594 L68,785.3594 M55,804.3594 L42,819.3594 M55,804.3594 L68,819.3594 " fill="none" style="stroke:#181818;stroke-width:0.5;"/><text fill="#000000" font-family="sans-serif" font-size="14" lengthAdjust="spacing" textLength="89" x="172.5" y="77.9951">Server (Hub)</text><ellipse cx="220" cy="49" fill="#E2E2F0" rx="12" ry="12" style="stroke:#181818;stroke-width:0.5;"/><line style="stroke:#181818;stroke-width:0.5;" x1="208" x2="232" y1="63" y2="63"/><text fill="#000000" font-family="sans-serif" font-size="14" lengthAdjust="spacing" textLength="89" x="172.5" y="757.5576">Server (Hub)</text><ellipse cx="220" cy="776.8594" fill="#E2E2F0" rx="12" ry="12" style="stroke:#181818;stroke-width:0.5;"/><line style="stroke:#181818;stroke-width:0.5;" x1="208" x2="232" y1="790.8594" y2="790.8594"/><text fill="#000000" font-family="sans-serif" font-size="14" lengthAdjust="spacing" textLength="39" x="443.5" y="77.9951">Tutor</text><ellipse cx="466" cy="13.5" fill="#E2E2F0" rx="8" ry="8" style="stroke:#181818;stroke-width:0.5;"/><path d="M466,21.5 L466,48.5 M453,29.5 L479,29.5 M466,48.5 L453,63.5 M466,48.5 L479,63.5 " fill="none" style="stroke:#181818;stroke-width:0.5;"/><text fill="#000000" font-family="sans-serif" font-size="14" lengthAdjust="spacing" textLength="39" x="443.5" y="757.5576">Tutor</text><ellipse cx="466" cy="769.3594" fill="#E2E2F0" rx="8" ry="8" style="stroke:#181818;stroke-width:0.5;"/><path d="M466,777.3594 L466,804.3594 M453,785.3594 L479,785.3594 M466,804.3594 L453,819.3594 M466,804.3594 L479,819.3594 " fill="none" style="stroke:#181818;stroke-width:0.5;"/><polygon fill="#181818" points="231,108.4297,221,112.4297,231,116.4297,227,112.4297" style="stroke:#181818;stroke-width:1.0;"/><line style="stroke:#181818;stroke-width:1.0;" x1="225" x2="465" y1="112.4297" y2="112.4297"/><text fill="#000000" font-family="sans-serif" font-size="13" lengthAdjust="spacing" textLength="137" x="237" y="107.3638">create Game request</text><polygon fill="#181818" points="208,137.5625,218,141.5625,208,145.5625,212,141.5625" style="stroke:#181818;stroke-width:1.0;"/><line style="stroke:#181818;stroke-width:1.0;" x1="55" x2="214" y1="141.5625" y2="141.5625"/><text fill="#000000" font-family="sans-serif" font-size="13" lengthAdjust="spacing" textLength="65" x="62" y="136.4966">join Game</text><polygon fill="#181818" points="454,166.6953,464,170.6953,454,174.6953,458,170.6953" style="stroke:#181818;stroke-width:1.0;"/><line style="stroke:#181818;stroke-width:1.0;" x1="220" x2="460" y1="170.6953" y2="170.6953"/><text fill="#000000" font-family="sans-serif" font-size="13" lengthAdjust="spacing" textLength="174" x="227" y="165.6294">send Player data to display</text><polygon fill="#181818" points="231,195.8281,221,199.8281,231,203.8281,227,199.8281" style="stroke:#181818;stroke-width:1.0;"/><line style="stroke:#181818;stroke-width:1.0;" x1="225" x2="465" y1="199.8281" y2="199.8281"/><text fill="#000000" font-family="sans-serif" font-size="13" lengthAdjust="spacing" textLength="126" x="237" y="194.7622">start Game request</text><path d="M10,214.8281 L88,214.8281 L88,221.9609 L78,231.9609 L10,231.9609 L10,214.8281 " fill="#EEEEEE" style="stroke:#000000;stroke-width:1.5;"/><rect fill="none" height="384.2031" style="stroke:#000000;stroke-width:1.5;" width="498.5" x="10" y="214.8281"/><text fill="#000000" font-family="sans-serif" font-size="13" font-weight="bold" lengthAdjust="spacing" textLength="33" x="25" y="227.895">loop</text><text fill="#000000" font-family="sans-serif" font-size="11" font-weight="bold" lengthAdjust="spacing" textLength="177" x="103" y="227.0386">[for all Questions of Quiz]</text><polygon fill="#181818" points="454,249.0938,464,253.0938,454,257.0938,458,253.0938" style="stroke:#181818;stroke-width:1.0;"/><line style="stroke:#181818;stroke-width:1.0;" x1="220" x2="460" y1="253.0938" y2="253.0938"/><text fill="#000000" font-family="sans-serif" font-size="13" lengthAdjust="spacing" textLength="222" x="227" y="248.0278">send new Question data to display</text><polygon fill="#181818" points="66,278.2266,56,282.2266,66,286.2266,62,282.2266" style="stroke:#181818;stroke-width:1.0;"/><line style="stroke:#181818;stroke-width:1.0;" x1="60" x2="219" y1="282.2266" y2="282.2266"/><text fill="#000000" font-family="sans-serif" font-size="13" lengthAdjust="spacing" textLength="141" x="72" y="277.1606">send new Option data</text><path d="M20,297.2266 L86,297.2266 L86,304.3594 L76,314.3594 L20,314.3594 L20,297.2266 " fill="#EEEEEE" style="stroke:#000000;stroke-width:1.5;"/><rect fill="none" height="90.2031" style="stroke:#000000;stroke-width:1.5;" width="260" x="20" y="297.2266"/><text fill="#000000" font-family="sans-serif" font-size="13" font-weight="bold" lengthAdjust="spacing" textLength="21" x="35" y="310.2935">alt</text><text fill="#000000" font-family="sans-serif" font-size="11" font-weight="bold" lengthAdjust="spacing" textLength="174" x="101" y="309.437">[player answers Question]</text><polygon fill="#181818" points="208,331.4922,218,335.4922,208,339.4922,212,335.4922" style="stroke:#181818;stroke-width:1.0;"/><line style="stroke:#181818;stroke-width:1.0;" x1="55" x2="214" y1="335.4922" y2="335.4922"/><text fill="#000000" font-family="sans-serif" font-size="13" lengthAdjust="spacing" textLength="82" x="62" y="330.4263">send answer</text><line style="stroke:#000000;stroke-width:1.0;stroke-dasharray:2.0,2.0;" x1="20" x2="280" y1="344.4922" y2="344.4922"/><text fill="#000000" font-family="sans-serif" font-size="11" font-weight="bold" lengthAdjust="spacing" textLength="231" x="25" y="354.7026">[player does not answer Question]</text><line style="stroke:#181818;stroke-width:1.0;" x1="218" x2="208" y1="379.4297" y2="375.4297"/><line style="stroke:#181818;stroke-width:1.0;" x1="218" x2="208" y1="379.4297" y2="383.4297"/><line style="stroke:#181818;stroke-width:1.0;stroke-dasharray:2.0,2.0;" x1="55" x2="219" y1="379.4297" y2="379.4297"/><text fill="#000000" font-family="sans-serif" font-size="13" lengthAdjust="spacing" textLength="99" x="62" y="374.3638">no answer sent</text><path d="M162.5,401.4297 L228.5,401.4297 L228.5,408.5625 L218.5,418.5625 L162.5,418.5625 L162.5,401.4297 " fill="#EEEEEE" style="stroke:#000000;stroke-width:1.5;"/><rect fill="none" height="103.2031" style="stroke:#000000;stroke-width:1.5;" width="336" x="162.5" y="401.4297"/><text fill="#000000" font-family="sans-serif" font-size="13" font-weight="bold" lengthAdjust="spacing" textLength="21" x="177.5" y="414.4966">alt</text><text fill="#000000" font-family="sans-serif" font-size="11" font-weight="bold" lengthAdjust="spacing" textLength="231" x="243.5" y="413.6401">[tutor advances to next Question]</text><polygon fill="#181818" points="231,435.6953,221,439.6953,231,443.6953,227,439.6953" style="stroke:#181818;stroke-width:1.0;"/><line style="stroke:#181818;stroke-width:1.0;" x1="225" x2="465" y1="439.6953" y2="439.6953"/><text fill="#000000" font-family="sans-serif" font-size="13" lengthAdjust="spacing" textLength="122" x="237" y="434.6294">request result data</text><line style="stroke:#000000;stroke-width:1.0;stroke-dasharray:2.0,2.0;" x1="162.5" x2="498.5" y1="448.6953" y2="448.6953"/><text fill="#000000" font-family="sans-serif" font-size="11" font-weight="bold" lengthAdjust="spacing" textLength="108" x="167.5" y="458.9058">[timer runs out]</text><line style="stroke:#181818;stroke-width:1.0;" x1="220" x2="262" y1="483.6328" y2="483.6328"/><line style="stroke:#181818;stroke-width:1.0;" x1="262" x2="262" y1="483.6328" y2="496.6328"/><line style="stroke:#181818;stroke-width:1.0;" x1="221" x2="262" y1="496.6328" y2="496.6328"/><polygon fill="#181818" points="231,492.6328,221,496.6328,231,500.6328,227,496.6328" style="stroke:#181818;stroke-width:1.0;"/><text fill="#000000" font-family="sans-serif" font-size="13" lengthAdjust="spacing" textLength="196" x="227" y="478.5669">request result data on timeout</text><polygon fill="#181818" points="454,528.7656,464,532.7656,454,536.7656,458,532.7656" style="stroke:#181818;stroke-width:1.0;"/><line style="stroke:#181818;stroke-width:1.0;" x1="220" x2="460" y1="532.7656" y2="532.7656"/><text fill="#000000" font-family="sans-serif" font-size="13" lengthAdjust="spacing" textLength="119" x="227" y="527.6997">send top 3 Players</text><polygon fill="#181818" points="66,557.8984,56,561.8984,66,565.8984,62,561.8984" style="stroke:#181818;stroke-width:1.0;"/><line style="stroke:#181818;stroke-width:1.0;" x1="60" x2="219" y1="561.8984" y2="561.8984"/><text fill="#000000" font-family="sans-serif" font-size="13" lengthAdjust="spacing" textLength="120" x="72" y="556.8325">send current score</text><polygon fill="#181818" points="231,587.0313,221,591.0313,231,595.0313,227,591.0313" style="stroke:#181818;stroke-width:1.0;"/><line style="stroke:#181818;stroke-width:1.0;" x1="225" x2="465" y1="591.0313" y2="591.0313"/><text fill="#000000" font-family="sans-serif" font-size="13" lengthAdjust="spacing" textLength="174" x="237" y="585.9653">request new Question data</text><polygon fill="#181818" points="454,623.1641,464,627.1641,454,631.1641,458,627.1641" style="stroke:#181818;stroke-width:1.0;"/><line style="stroke:#181818;stroke-width:1.0;" x1="220" x2="460" y1="627.1641" y2="627.1641"/><text fill="#000000" font-family="sans-serif" font-size="13" lengthAdjust="spacing" textLength="108" x="227" y="622.0981">send Scoreboard</text><polygon fill="#181818" points="231,652.2969,221,656.2969,231,660.2969,227,656.2969" style="stroke:#181818;stroke-width:1.0;"/><line style="stroke:#181818;stroke-width:1.0;" x1="225" x2="465" y1="656.2969" y2="656.2969"/><text fill="#000000" font-family="sans-serif" font-size="13" lengthAdjust="spacing" textLength="120" x="237" y="651.231">end Game request</text><polygon fill="#181818" points="454,681.4297,464,685.4297,454,689.4297,458,685.4297" style="stroke:#181818;stroke-width:1.0;"/><line style="stroke:#181818;stroke-width:1.0;" x1="220" x2="460" y1="685.4297" y2="685.4297"/><text fill="#000000" font-family="sans-serif" font-size="13" lengthAdjust="spacing" textLength="152" x="227" y="680.3638">end Game confirmation</text><line style="stroke:#181818;stroke-width:1.0;" x1="466" x2="508" y1="714.5625" y2="714.5625"/><line style="stroke:#181818;stroke-width:1.0;" x1="508" x2="508" y1="714.5625" y2="727.5625"/><line style="stroke:#181818;stroke-width:1.0;" x1="467" x2="508" y1="727.5625" y2="727.5625"/><polygon fill="#181818" points="477,723.5625,467,727.5625,477,731.5625,473,727.5625" style="stroke:#181818;stroke-width:1.0;"/><text fill="#000000" font-family="sans-serif" font-size="13" lengthAdjust="spacing" textLength="138" x="473" y="709.4966">redirect to main page</text><!--SRC=[VLAnLiCm3Dpz5NgTOEZ4rg4hRC0hFw3QAi-yn0wot5A-7jbDqeQqNU9OkZj99wELo01l3Hw90HFaH6meY9SZB3R4Umq_lEJjuw9aKmqOhAoFNBuQbV9ZZAadBDSz35PWcL08dh4bOFhEbCIK2XFGL_IXGamVqkH9QgMWu8Rk70g2H70-THgvKYu9iaohDJ5si2jzDWsybv2F8K7SwSN_tgeOw322PtNFd3hA1UMr6ma66u6kjpMa0t4Q5USML8KJp52JQ62wI0b2b3xtNs6vlj08SK2fckWENUtXD1UwFGQhOZf7e1yvAyrTxAtJCsKLgDFKfiIt2k1S_CjouSCzAgWXXLWOfQSRZekkwQdVTBfXiStCEXea6vdkD3xRtht2coAsZSZkYc81J9xJN6I4s1XsdbkSkZh0c9ndib8MqA8- -0u_wGy0]--></g><script xmlns="" id="bw-fido2-page-script"/></svg>